<?xml version="1.0" encoding="UTF-8" standalone="no"?>
<!DOCTYPE svg PUBLIC "-//W3C//DTD SVG 1.1//EN"
 "http://www.w3.org/Graphics/SVG/1.1/DTD/svg11.dtd">
<!-- Generated by graphviz version 2.40.1 (20161225.0304)
 -->
<!-- Title: dependencies Pages: 1 -->
<svg width="862pt" height="284pt"
 viewBox="0.00 0.00 862.00 284.00" xmlns="http://www.w3.org/2000/svg" xmlns:xlink="http://www.w3.org/1999/xlink">
<g id="graph0" class="graph" transform="scale(1 1) rotate(0) translate(4 280)">
<title>dependencies</title>
<polygon fill="#ffffff" stroke="transparent" points="-4,4 -4,-280 858,-280 858,4 -4,4"/>
<text text-anchor="start" x="406.0091" y="-42.4" font-family="sans-serif" font-weight="bold" font-size="14.00" fill="#000000">Legend</text>
<polygon fill="#ffffb3" stroke="transparent" points="193,-10 193,-30 213,-30 213,-10 193,-10"/>
<text text-anchor="start" x="216.629" y="-15.4" font-family="sans-serif" font-size="14.00" fill="#000000"> &#160;Declarations</text>
<polygon fill="#8dd3c7" stroke="transparent" points="306,-10 306,-30 326,-30 326,-10 306,-10"/>
<text text-anchor="start" x="329.7251" y="-15.4" font-family="sans-serif" font-size="14.00" fill="#000000"> &#160;Module</text>
<polygon fill="#80b1d3" stroke="transparent" points="392,-10 392,-30 412,-30 412,-10 392,-10"/>
<text text-anchor="start" x="415.7812" y="-15.4" font-family="sans-serif" font-size="14.00" fill="#000000"> &#160;Bootstrap</text>
<polygon fill="#fdb462" stroke="transparent" points="489,-10 489,-30 509,-30 509,-10 489,-10"/>
<text text-anchor="start" x="512.6732" y="-15.4" font-family="sans-serif" font-size="14.00" fill="#000000"> &#160;Providers</text>
<polygon fill="#fb8072" stroke="transparent" points="585,-10 585,-30 605,-30 605,-10 585,-10"/>
<text text-anchor="start" x="608.7258" y="-15.4" font-family="sans-serif" font-size="14.00" fill="#000000"> &#160;Exports</text>
<g id="clust1" class="cluster">
<title>cluster_NgxPersianModule</title>
<polygon fill="none" stroke="#000000" stroke-dasharray="1,5" points="8,-70 8,-268 846,-268 846,-70 8,-70"/>
</g>
<g id="clust2" class="cluster">
<title>cluster_NgxPersianModule_declarations</title>
<polygon fill="none" stroke="#000000" points="27,-78 27,-130 830,-130 830,-78 27,-78"/>
</g>
<g id="clust10" class="cluster">
<title>cluster_NgxPersianModule_exports</title>
<polygon fill="none" stroke="#000000" points="16,-208 16,-260 838,-260 838,-208 16,-208"/>
</g>
<!-- EnNumPipe -->
<g id="node1" class="node">
<title>EnNumPipe</title>
<polygon fill="#ffffb3" stroke="#000000" points="822.4387,-122 737.5613,-122 737.5613,-86 822.4387,-86 822.4387,-122"/>
<text text-anchor="middle" x="780" y="-99.8" font-family="Times,serif" font-size="14.00" fill="#000000">EnNumPipe</text>
</g>
<!-- NgxPersianModule -->
<g id="node7" class="node">
<title>NgxPersianModule</title>
<polygon fill="#8dd3c7" stroke="#000000" points="500.3641,-187 497.3641,-191 476.3641,-191 473.3641,-187 375.6359,-187 375.6359,-151 500.3641,-151 500.3641,-187"/>
<text text-anchor="middle" x="438" y="-164.8" font-family="Times,serif" font-size="14.00" fill="#000000">NgxPersianModule</text>
</g>
<!-- EnNumPipe&#45;&gt;NgxPersianModule -->
<g id="edge1" class="edge">
<title>EnNumPipe&#45;&gt;NgxPersianModule</title>
<path fill="none" stroke="#000000" d="M795.4896,-122.2667C795.4896,-140.5552 795.4896,-166 795.4896,-166 795.4896,-166 510.679,-166 510.679,-166"/>
<polygon fill="#000000" stroke="#000000" points="510.6791,-162.5001 500.679,-166 510.679,-169.5001 510.6791,-162.5001"/>
</g>
<!-- FaNumPipe -->
<g id="node2" class="node">
<title>FaNumPipe</title>
<polygon fill="#ffffb3" stroke="#000000" points="719.3823,-122 636.6177,-122 636.6177,-86 719.3823,-86 719.3823,-122"/>
<text text-anchor="middle" x="678" y="-99.8" font-family="Times,serif" font-size="14.00" fill="#000000">FaNumPipe</text>
</g>
<!-- FaNumPipe&#45;&gt;NgxPersianModule -->
<g id="edge2" class="edge">
<title>FaNumPipe&#45;&gt;NgxPersianModule</title>
<path fill="none" stroke="#000000" d="M692.2304,-122.0091C692.2304,-138.0494 692.2304,-159 692.2304,-159 692.2304,-159 510.5174,-159 510.5174,-159"/>
<polygon fill="#000000" stroke="#000000" points="510.5174,-155.5001 500.5174,-159 510.5173,-162.5001 510.5174,-155.5001"/>
</g>
<!-- IRCurrencyPipe -->
<g id="node3" class="node">
<title>IRCurrencyPipe</title>
<polygon fill="#ffffb3" stroke="#000000" points="618.472,-122 511.528,-122 511.528,-86 618.472,-86 618.472,-122"/>
<text text-anchor="middle" x="565" y="-99.8" font-family="Times,serif" font-size="14.00" fill="#000000">IRCurrencyPipe</text>
</g>
<!-- IRCurrencyPipe&#45;&gt;NgxPersianModule -->
<g id="edge3" class="edge">
<title>IRCurrencyPipe&#45;&gt;NgxPersianModule</title>
<path fill="none" stroke="#000000" d="M511.3246,-104C502.8816,-104 496.8777,-104 496.8777,-104 496.8777,-104 496.8777,-140.8939 496.8777,-140.8939"/>
<polygon fill="#000000" stroke="#000000" points="493.3777,-140.8938 496.8777,-150.8939 500.3777,-140.8939 493.3777,-140.8938"/>
</g>
<!-- NationalCodePipe -->
<g id="node4" class="node">
<title>NationalCodePipe</title>
<polygon fill="#ffffb3" stroke="#000000" points="493.1471,-122 374.8529,-122 374.8529,-86 493.1471,-86 493.1471,-122"/>
<text text-anchor="middle" x="434" y="-99.8" font-family="Times,serif" font-size="14.00" fill="#000000">NationalCodePipe</text>
</g>
<!-- NationalCodePipe&#45;&gt;NgxPersianModule -->
<g id="edge4" class="edge">
<title>NationalCodePipe&#45;&gt;NgxPersianModule</title>
<path fill="none" stroke="#000000" d="M434.4457,-122.1061C434.4457,-122.1061 434.4457,-140.991 434.4457,-140.991"/>
<polygon fill="#000000" stroke="#000000" points="430.9457,-140.9909 434.4457,-150.991 437.9457,-140.991 430.9457,-140.9909"/>
</g>
<!-- PersianLetterDirective -->
<g id="node5" class="node">
<title>PersianLetterDirective</title>
<polygon fill="#ffffb3" stroke="#000000" points="356.2143,-122 213.7857,-122 213.7857,-86 356.2143,-86 356.2143,-122"/>
<text text-anchor="middle" x="285" y="-99.8" font-family="Times,serif" font-size="14.00" fill="#000000">PersianLetterDirective</text>
</g>
<!-- PersianLetterDirective&#45;&gt;NgxPersianModule -->
<g id="edge5" class="edge">
<title>PersianLetterDirective&#45;&gt;NgxPersianModule</title>
<path fill="none" stroke="#000000" d="M305.9523,-122.0091C305.9523,-138.0494 305.9523,-159 305.9523,-159 305.9523,-159 365.4565,-159 365.4565,-159"/>
<polygon fill="#000000" stroke="#000000" points="365.4565,-162.5001 375.4565,-159 365.4564,-155.5001 365.4565,-162.5001"/>
</g>
<!-- PersianNumbersDirective -->
<g id="node6" class="node">
<title>PersianNumbersDirective</title>
<polygon fill="#ffffb3" stroke="#000000" points="195.1079,-122 34.8921,-122 34.8921,-86 195.1079,-86 195.1079,-122"/>
<text text-anchor="middle" x="115" y="-99.8" font-family="Times,serif" font-size="14.00" fill="#000000">PersianNumbersDirective</text>
</g>
<!-- PersianNumbersDirective&#45;&gt;NgxPersianModule -->
<g id="edge6" class="edge">
<title>PersianNumbersDirective&#45;&gt;NgxPersianModule</title>
<path fill="none" stroke="#000000" d="M191.6787,-122.2667C191.6787,-140.5552 191.6787,-166 191.6787,-166 191.6787,-166 365.5243,-166 365.5243,-166"/>
<polygon fill="#000000" stroke="#000000" points="365.5243,-169.5001 375.5243,-166 365.5243,-162.5001 365.5243,-169.5001"/>
</g>
<!-- EnNumPipe  -->
<g id="node8" class="node">
<title>EnNumPipe </title>
<polygon fill="#fb8072" stroke="#000000" points="829.9376,-252 742.0624,-252 742.0624,-216 829.9376,-216 829.9376,-252"/>
<text text-anchor="middle" x="786" y="-229.8" font-family="Times,serif" font-size="14.00" fill="#000000">EnNumPipe </text>
</g>
<!-- NgxPersianModule&#45;&gt;EnNumPipe  -->
<g id="edge7" class="edge">
<title>NgxPersianModule&#45;&gt;EnNumPipe </title>
<path fill="none" stroke="#000000" stroke-dasharray="5,2" d="M500.6024,-173C596.4932,-173 768.7604,-173 768.7604,-173 768.7604,-173 768.7604,-205.698 768.7604,-205.698"/>
<polygon fill="#000000" stroke="#000000" points="765.2605,-205.698 768.7604,-215.698 772.2605,-205.698 765.2605,-205.698"/>
</g>
<!-- FaNumPipe  -->
<g id="node9" class="node">
<title>FaNumPipe </title>
<polygon fill="#fb8072" stroke="#000000" points="724.383,-252 637.617,-252 637.617,-216 724.383,-216 724.383,-252"/>
<text text-anchor="middle" x="681" y="-229.8" font-family="Times,serif" font-size="14.00" fill="#000000">FaNumPipe </text>
</g>
<!-- NgxPersianModule&#45;&gt;FaNumPipe  -->
<g id="edge8" class="edge">
<title>NgxPersianModule&#45;&gt;FaNumPipe </title>
<path fill="none" stroke="#000000" stroke-dasharray="5,2" d="M500.6351,-180C567.8315,-180 665.0196,-180 665.0196,-180 665.0196,-180 665.0196,-205.7181 665.0196,-205.7181"/>
<polygon fill="#000000" stroke="#000000" points="661.5197,-205.718 665.0196,-215.7181 668.5197,-205.7181 661.5197,-205.718"/>
</g>
<!-- IRCurrencyPipe  -->
<g id="node10" class="node">
<title>IRCurrencyPipe </title>
<polygon fill="#fb8072" stroke="#000000" points="620.473,-252 509.527,-252 509.527,-216 620.473,-216 620.473,-252"/>
<text text-anchor="middle" x="565" y="-229.8" font-family="Times,serif" font-size="14.00" fill="#000000">IRCurrencyPipe </text>
</g>
<!-- NgxPersianModule&#45;&gt;IRCurrencyPipe  -->
<g id="edge9" class="edge">
<title>NgxPersianModule&#45;&gt;IRCurrencyPipe </title>
<path fill="none" stroke="#000000" stroke-dasharray="5,2" d="M496.2527,-187.1061C496.2527,-206.3391 496.2527,-234 496.2527,-234 496.2527,-234 499.5078,-234 499.5078,-234"/>
<polygon fill="#000000" stroke="#000000" points="499.5079,-237.5001 509.5078,-234 499.5078,-230.5001 499.5079,-237.5001"/>
</g>
<!-- NationalCodePipe  -->
<g id="node11" class="node">
<title>NationalCodePipe </title>
<polygon fill="#fb8072" stroke="#000000" points="492.1467,-252 369.8533,-252 369.8533,-216 492.1467,-216 492.1467,-252"/>
<text text-anchor="middle" x="431" y="-229.8" font-family="Times,serif" font-size="14.00" fill="#000000">NationalCodePipe </text>
</g>
<!-- NgxPersianModule&#45;&gt;NationalCodePipe  -->
<g id="edge10" class="edge">
<title>NgxPersianModule&#45;&gt;NationalCodePipe </title>
<path fill="none" stroke="#000000" stroke-dasharray="5,2" d="M433.8207,-187.1061C433.8207,-187.1061 433.8207,-205.991 433.8207,-205.991"/>
<polygon fill="#000000" stroke="#000000" points="430.3207,-205.9909 433.8207,-215.991 437.3207,-205.991 430.3207,-205.9909"/>
</g>
<!-- PersianLetterDirective  -->
<g id="node12" class="node">
<title>PersianLetterDirective </title>
<polygon fill="#fb8072" stroke="#000000" points="352.2142,-252 205.7858,-252 205.7858,-216 352.2142,-216 352.2142,-252"/>
<text text-anchor="middle" x="279" y="-229.8" font-family="Times,serif" font-size="14.00" fill="#000000">PersianLetterDirective </text>
</g>
<!-- NgxPersianModule&#45;&gt;PersianLetterDirective  -->
<g id="edge11" class="edge">
<title>NgxPersianModule&#45;&gt;PersianLetterDirective </title>
<path fill="none" stroke="#000000" stroke-dasharray="5,2" d="M375.4231,-180C324.0759,-180 259.7977,-180 259.7977,-180 259.7977,-180 259.7977,-205.7181 259.7977,-205.7181"/>
<polygon fill="#000000" stroke="#000000" points="256.2978,-205.718 259.7977,-215.7181 263.2978,-205.7181 256.2978,-205.718"/>
</g>
<!-- PersianNumbersDirective  -->
<g id="node13" class="node">
<title>PersianNumbersDirective </title>
<polygon fill="#fb8072" stroke="#000000" points="188.1074,-252 23.8926,-252 23.8926,-216 188.1074,-216 188.1074,-252"/>
<text text-anchor="middle" x="106" y="-229.8" font-family="Times,serif" font-size="14.00" fill="#000000">PersianNumbersDirective </text>
</g>
<!-- NgxPersianModule&#45;&gt;PersianNumbersDirective  -->
<g id="edge12" class="edge">
<title>NgxPersianModule&#45;&gt;PersianNumbersDirective </title>
<path fill="none" stroke="#000000" stroke-dasharray="5,2" d="M375.4099,-173C280.5688,-173 111.375,-173 111.375,-173 111.375,-173 111.375,-205.698 111.375,-205.698"/>
<polygon fill="#000000" stroke="#000000" points="107.8751,-205.698 111.375,-215.698 114.8751,-205.698 107.8751,-205.698"/>
</g>
</g>
</svg>
