<?xml version="1.0" encoding="UTF-8" standalone="no"?>
<!DOCTYPE svg PUBLIC "-//W3C//DTD SVG 1.1//EN"
 "http://www.w3.org/Graphics/SVG/1.1/DTD/svg11.dtd">
<!-- Generated by graphviz version 2.46.1 (20210213.1702)
 -->
<!-- Title: dependencies Pages: 1 -->
<svg width="954pt" height="284pt"
 viewBox="0.00 0.00 954.00 284.00" xmlns="http://www.w3.org/2000/svg" xmlns:xlink="http://www.w3.org/1999/xlink">
<g id="graph0" class="graph" transform="scale(1 1) rotate(0) translate(4 280)">
<title>dependencies</title>
<polygon fill="white" stroke="transparent" points="-4,4 -4,-280 950,-280 950,4 -4,4"/>
<text text-anchor="start" x="452.01" y="-42.4" font-family="sans-serif" font-weight="bold" font-size="14.00">Legend</text>
<polygon fill="#ffffb3" stroke="transparent" points="239,-10 239,-30 259,-30 259,-10 239,-10"/>
<text text-anchor="start" x="262.63" y="-15.4" font-family="sans-serif" font-size="14.00"> &#160;Declarations</text>
<polygon fill="#8dd3c7" stroke="transparent" points="352,-10 352,-30 372,-30 372,-10 352,-10"/>
<text text-anchor="start" x="375.73" y="-15.4" font-family="sans-serif" font-size="14.00"> &#160;Module</text>
<polygon fill="#80b1d3" stroke="transparent" points="438,-10 438,-30 458,-30 458,-10 438,-10"/>
<text text-anchor="start" x="461.78" y="-15.4" font-family="sans-serif" font-size="14.00"> &#160;Bootstrap</text>
<polygon fill="#fdb462" stroke="transparent" points="535,-10 535,-30 555,-30 555,-10 535,-10"/>
<text text-anchor="start" x="558.67" y="-15.4" font-family="sans-serif" font-size="14.00"> &#160;Providers</text>
<polygon fill="#fb8072" stroke="transparent" points="631,-10 631,-30 651,-30 651,-10 631,-10"/>
<text text-anchor="start" x="654.73" y="-15.4" font-family="sans-serif" font-size="14.00"> &#160;Exports</text>
<g id="clust1" class="cluster">
<title>cluster_NgxPersianModule</title>
<polygon fill="none" stroke="black" stroke-dasharray="1,5" points="8,-70 8,-268 938,-268 938,-70 8,-70"/>
</g>
<g id="clust11" class="cluster">
<title>cluster_NgxPersianModule_exports</title>
<polygon fill="none" stroke="black" points="16,-208 16,-260 930,-260 930,-208 16,-208"/>
</g>
<g id="clust2" class="cluster">
<title>cluster_NgxPersianModule_declarations</title>
<polygon fill="none" stroke="black" points="28,-78 28,-130 918,-130 918,-78 28,-78"/>
</g>
<!-- EnNumPipe -->
<g id="node1" class="node">
<title>EnNumPipe</title>
<polygon fill="#ffffb3" stroke="black" points="910.44,-122 825.56,-122 825.56,-86 910.44,-86 910.44,-122"/>
<text text-anchor="middle" x="868" y="-99.8" font-family="Times,serif" font-size="14.00">EnNumPipe</text>
</g>
<!-- NgxPersianModule -->
<g id="node8" class="node">
<title>NgxPersianModule</title>
<polygon fill="#8dd3c7" stroke="black" points="609.36,-187 606.36,-191 585.36,-191 582.36,-187 484.64,-187 484.64,-151 609.36,-151 609.36,-187"/>
<text text-anchor="middle" x="547" y="-164.8" font-family="Times,serif" font-size="14.00">NgxPersianModule</text>
</g>
<!-- EnNumPipe&#45;&gt;NgxPersianModule -->
<g id="edge1" class="edge">
<title>EnNumPipe&#45;&gt;NgxPersianModule</title>
<path fill="none" stroke="black" d="M829.91,-122.27C829.91,-140.56 829.91,-166 829.91,-166 829.91,-166 619.44,-166 619.44,-166"/>
<polygon fill="black" stroke="black" points="619.44,-162.5 609.44,-166 619.44,-169.5 619.44,-162.5"/>
</g>
<!-- FaNumPipe -->
<g id="node2" class="node">
<title>FaNumPipe</title>
<polygon fill="#ffffb3" stroke="black" points="807.38,-122 724.62,-122 724.62,-86 807.38,-86 807.38,-122"/>
<text text-anchor="middle" x="766" y="-99.8" font-family="Times,serif" font-size="14.00">FaNumPipe</text>
</g>
<!-- FaNumPipe&#45;&gt;NgxPersianModule -->
<g id="edge2" class="edge">
<title>FaNumPipe&#45;&gt;NgxPersianModule</title>
<path fill="none" stroke="black" d="M781.56,-122.01C781.56,-138.05 781.56,-159 781.56,-159 781.56,-159 619.55,-159 619.55,-159"/>
<polygon fill="black" stroke="black" points="619.55,-155.5 609.55,-159 619.55,-162.5 619.55,-155.5"/>
</g>
<!-- IRCurrencyPipe -->
<g id="node3" class="node">
<title>IRCurrencyPipe</title>
<polygon fill="#ffffb3" stroke="black" points="706.47,-122 599.53,-122 599.53,-86 706.47,-86 706.47,-122"/>
<text text-anchor="middle" x="653" y="-99.8" font-family="Times,serif" font-size="14.00">IRCurrencyPipe</text>
</g>
<!-- IRCurrencyPipe&#45;&gt;NgxPersianModule -->
<g id="edge3" class="edge">
<title>IRCurrencyPipe&#45;&gt;NgxPersianModule</title>
<path fill="none" stroke="black" d="M604.47,-122.11C604.47,-122.11 604.47,-140.99 604.47,-140.99"/>
<polygon fill="black" stroke="black" points="600.97,-140.99 604.47,-150.99 607.97,-140.99 600.97,-140.99"/>
</g>
<!-- JdatePipe -->
<g id="node4" class="node">
<title>JdatePipe</title>
<polygon fill="#ffffb3" stroke="black" points="581.65,-122 512.35,-122 512.35,-86 581.65,-86 581.65,-122"/>
<text text-anchor="middle" x="547" y="-99.8" font-family="Times,serif" font-size="14.00">JdatePipe</text>
</g>
<!-- JdatePipe&#45;&gt;NgxPersianModule -->
<g id="edge4" class="edge">
<title>JdatePipe&#45;&gt;NgxPersianModule</title>
<path fill="none" stroke="black" d="M547,-122.11C547,-122.11 547,-140.99 547,-140.99"/>
<polygon fill="black" stroke="black" points="543.5,-140.99 547,-150.99 550.5,-140.99 543.5,-140.99"/>
</g>
<!-- NationalCodePipe -->
<g id="node5" class="node">
<title>NationalCodePipe</title>
<polygon fill="#ffffb3" stroke="black" points="494.15,-122 375.85,-122 375.85,-86 494.15,-86 494.15,-122"/>
<text text-anchor="middle" x="435" y="-99.8" font-family="Times,serif" font-size="14.00">NationalCodePipe</text>
</g>
<!-- NationalCodePipe&#45;&gt;NgxPersianModule -->
<g id="edge5" class="edge">
<title>NationalCodePipe&#45;&gt;NgxPersianModule</title>
<path fill="none" stroke="black" d="M489.45,-122.11C489.45,-122.11 489.45,-140.99 489.45,-140.99"/>
<polygon fill="black" stroke="black" points="485.95,-140.99 489.45,-150.99 492.95,-140.99 485.95,-140.99"/>
</g>
<!-- PersianLetterDirective -->
<g id="node6" class="node">
<title>PersianLetterDirective</title>
<polygon fill="#ffffb3" stroke="black" points="357.21,-122 214.79,-122 214.79,-86 357.21,-86 357.21,-122"/>
<text text-anchor="middle" x="286" y="-99.8" font-family="Times,serif" font-size="14.00">PersianLetterDirective</text>
</g>
<!-- PersianLetterDirective&#45;&gt;NgxPersianModule -->
<g id="edge6" class="edge">
<title>PersianLetterDirective&#45;&gt;NgxPersianModule</title>
<path fill="none" stroke="black" d="M306.29,-122.01C306.29,-138.05 306.29,-159 306.29,-159 306.29,-159 474.38,-159 474.38,-159"/>
<polygon fill="black" stroke="black" points="474.38,-162.5 484.38,-159 474.38,-155.5 474.38,-162.5"/>
</g>
<!-- PersianNumbersDirective -->
<g id="node7" class="node">
<title>PersianNumbersDirective</title>
<polygon fill="#ffffb3" stroke="black" points="196.11,-122 35.89,-122 35.89,-86 196.11,-86 196.11,-122"/>
<text text-anchor="middle" x="116" y="-99.8" font-family="Times,serif" font-size="14.00">PersianNumbersDirective</text>
</g>
<!-- PersianNumbersDirective&#45;&gt;NgxPersianModule -->
<g id="edge7" class="edge">
<title>PersianNumbersDirective&#45;&gt;NgxPersianModule</title>
<path fill="none" stroke="black" d="M192.18,-122.27C192.18,-140.56 192.18,-166 192.18,-166 192.18,-166 474.38,-166 474.38,-166"/>
<polygon fill="black" stroke="black" points="474.38,-169.5 484.38,-166 474.38,-162.5 474.38,-169.5"/>
</g>
<!-- EnNumPipe  -->
<g id="node9" class="node">
<title>EnNumPipe </title>
<polygon fill="#fb8072" stroke="black" points="921.94,-252 834.06,-252 834.06,-216 921.94,-216 921.94,-252"/>
<text text-anchor="middle" x="878" y="-229.8" font-family="Times,serif" font-size="14.00">EnNumPipe </text>
</g>
<!-- NgxPersianModule&#45;&gt;EnNumPipe  -->
<g id="edge8" class="edge">
<title>NgxPersianModule&#45;&gt;EnNumPipe </title>
<path fill="none" stroke="black" stroke-dasharray="5,2" d="M609.69,-173C704.16,-173 872.12,-173 872.12,-173 872.12,-173 872.12,-205.7 872.12,-205.7"/>
<polygon fill="black" stroke="black" points="868.63,-205.7 872.12,-215.7 875.63,-205.7 868.63,-205.7"/>
</g>
<!-- FaNumPipe  -->
<g id="node10" class="node">
<title>FaNumPipe </title>
<polygon fill="#fb8072" stroke="black" points="816.38,-252 729.62,-252 729.62,-216 816.38,-216 816.38,-252"/>
<text text-anchor="middle" x="773" y="-229.8" font-family="Times,serif" font-size="14.00">FaNumPipe </text>
</g>
<!-- NgxPersianModule&#45;&gt;FaNumPipe  -->
<g id="edge9" class="edge">
<title>NgxPersianModule&#45;&gt;FaNumPipe </title>
<path fill="none" stroke="black" stroke-dasharray="5,2" d="M609.61,-180C671.08,-180 755.69,-180 755.69,-180 755.69,-180 755.69,-205.72 755.69,-205.72"/>
<polygon fill="black" stroke="black" points="752.19,-205.72 755.69,-215.72 759.19,-205.72 752.19,-205.72"/>
</g>
<!-- IRCurrencyPipe  -->
<g id="node11" class="node">
<title>IRCurrencyPipe </title>
<polygon fill="#fb8072" stroke="black" points="712.47,-252 601.53,-252 601.53,-216 712.47,-216 712.47,-252"/>
<text text-anchor="middle" x="657" y="-229.8" font-family="Times,serif" font-size="14.00">IRCurrencyPipe </text>
</g>
<!-- NgxPersianModule&#45;&gt;IRCurrencyPipe  -->
<g id="edge10" class="edge">
<title>NgxPersianModule&#45;&gt;IRCurrencyPipe </title>
<path fill="none" stroke="black" stroke-dasharray="5,2" d="M605.6,-187.11C605.6,-187.11 605.6,-205.99 605.6,-205.99"/>
<polygon fill="black" stroke="black" points="602.1,-205.99 605.6,-215.99 609.1,-205.99 602.1,-205.99"/>
</g>
<!-- JdatePipe  -->
<g id="node12" class="node">
<title>JdatePipe </title>
<polygon fill="#fb8072" stroke="black" points="583.65,-252 510.35,-252 510.35,-216 583.65,-216 583.65,-252"/>
<text text-anchor="middle" x="547" y="-229.8" font-family="Times,serif" font-size="14.00">JdatePipe </text>
</g>
<!-- NgxPersianModule&#45;&gt;JdatePipe  -->
<g id="edge11" class="edge">
<title>NgxPersianModule&#45;&gt;JdatePipe </title>
<path fill="none" stroke="black" stroke-dasharray="5,2" d="M547,-187.11C547,-187.11 547,-205.99 547,-205.99"/>
<polygon fill="black" stroke="black" points="543.5,-205.99 547,-215.99 550.5,-205.99 543.5,-205.99"/>
</g>
<!-- NationalCodePipe  -->
<g id="node13" class="node">
<title>NationalCodePipe </title>
<polygon fill="#fb8072" stroke="black" points="492.15,-252 369.85,-252 369.85,-216 492.15,-216 492.15,-252"/>
<text text-anchor="middle" x="431" y="-229.8" font-family="Times,serif" font-size="14.00">NationalCodePipe </text>
</g>
<!-- NgxPersianModule&#45;&gt;NationalCodePipe  -->
<g id="edge12" class="edge">
<title>NgxPersianModule&#45;&gt;NationalCodePipe </title>
<path fill="none" stroke="black" stroke-dasharray="5,2" d="M488.32,-187.11C488.32,-187.11 488.32,-205.99 488.32,-205.99"/>
<polygon fill="black" stroke="black" points="484.82,-205.99 488.32,-215.99 491.82,-205.99 484.82,-205.99"/>
</g>
<!-- PersianLetterDirective  -->
<g id="node14" class="node">
<title>PersianLetterDirective </title>
<polygon fill="#fb8072" stroke="black" points="352.21,-252 205.79,-252 205.79,-216 352.21,-216 352.21,-252"/>
<text text-anchor="middle" x="279" y="-229.8" font-family="Times,serif" font-size="14.00">PersianLetterDirective </text>
</g>
<!-- NgxPersianModule&#45;&gt;PersianLetterDirective  -->
<g id="edge13" class="edge">
<title>NgxPersianModule&#45;&gt;PersianLetterDirective </title>
<path fill="none" stroke="black" stroke-dasharray="5,2" d="M484.47,-180C400.16,-180 260.46,-180 260.46,-180 260.46,-180 260.46,-205.72 260.46,-205.72"/>
<polygon fill="black" stroke="black" points="256.96,-205.72 260.46,-215.72 263.96,-205.72 256.96,-205.72"/>
</g>
<!-- PersianNumbersDirective  -->
<g id="node15" class="node">
<title>PersianNumbersDirective </title>
<polygon fill="#fb8072" stroke="black" points="188.11,-252 23.89,-252 23.89,-216 188.11,-216 188.11,-252"/>
<text text-anchor="middle" x="106" y="-229.8" font-family="Times,serif" font-size="14.00">PersianNumbersDirective </text>
</g>
<!-- NgxPersianModule&#45;&gt;PersianNumbersDirective  -->
<g id="edge14" class="edge">
<title>NgxPersianModule&#45;&gt;PersianNumbersDirective </title>
<path fill="none" stroke="black" stroke-dasharray="5,2" d="M484.19,-173C363.69,-173 111.88,-173 111.88,-173 111.88,-173 111.88,-205.7 111.88,-205.7"/>
<polygon fill="black" stroke="black" points="108.38,-205.7 111.88,-215.7 115.38,-205.7 108.38,-205.7"/>
</g>
</g>
</svg>
