<?xml version="1.0" encoding="UTF-8" standalone="no"?>
<!DOCTYPE svg PUBLIC "-//W3C//DTD SVG 1.1//EN"
 "http://www.w3.org/Graphics/SVG/1.1/DTD/svg11.dtd">
<!-- Generated by graphviz version 2.47.3 (20210619.1520)
 -->
<!-- Title: dependencies Pages: 1 -->
<svg width="954pt" height="247pt"
 viewBox="0.00 0.00 954.00 246.80" xmlns="http://www.w3.org/2000/svg" xmlns:xlink="http://www.w3.org/1999/xlink">
<g id="graph0" class="graph" transform="scale(1 1) rotate(0) translate(4 242.8)">
<title>dependencies</title>
<polygon fill="white" stroke="transparent" points="-4,4 -4,-242.8 950,-242.8 950,4 -4,4"/>
<text text-anchor="middle" x="473" y="-8.2" font-family="sans-serif" font-size="14.00">dependencies</text>
<g id="clust1" class="cluster">
<title>cluster_NgxPersianModule</title>
<polygon fill="none" stroke="black" stroke-dasharray="1,5" points="8,-32.8 8,-230.8 938,-230.8 938,-32.8 8,-32.8"/>
</g>
<g id="clust11" class="cluster">
<title>cluster_NgxPersianModule_exports</title>
<polygon fill="none" stroke="black" points="16,-170.8 16,-222.8 930,-222.8 930,-170.8 16,-170.8"/>
</g>
<g id="clust2" class="cluster">
<title>cluster_NgxPersianModule_declarations</title>
<polygon fill="none" stroke="black" points="28,-40.8 28,-92.8 918,-92.8 918,-40.8 28,-40.8"/>
</g>
<!-- EnNumPipe -->
<g id="node1" class="node">
<title>EnNumPipe</title>
<polygon fill="#ffffb3" stroke="black" points="910.44,-84.8 825.56,-84.8 825.56,-48.8 910.44,-48.8 910.44,-84.8"/>
<text text-anchor="middle" x="868" y="-62.6" font-family="Times,serif" font-size="14.00">EnNumPipe</text>
</g>
<!-- NgxPersianModule -->
<g id="node8" class="node">
<title>NgxPersianModule</title>
<polygon fill="#8dd3c7" stroke="black" points="609.36,-149.8 606.36,-153.8 585.36,-153.8 582.36,-149.8 484.64,-149.8 484.64,-113.8 609.36,-113.8 609.36,-149.8"/>
<text text-anchor="middle" x="547" y="-127.6" font-family="Times,serif" font-size="14.00">NgxPersianModule</text>
</g>
<!-- EnNumPipe&#45;&gt;NgxPersianModule -->
<g id="edge1" class="edge">
<title>EnNumPipe&#45;&gt;NgxPersianModule</title>
<path fill="none" stroke="black" d="M829.91,-85.07C829.91,-103.36 829.91,-128.8 829.91,-128.8 829.91,-128.8 619.44,-128.8 619.44,-128.8"/>
<polygon fill="black" stroke="black" points="619.44,-125.3 609.44,-128.8 619.44,-132.3 619.44,-125.3"/>
</g>
<!-- FaNumPipe -->
<g id="node2" class="node">
<title>FaNumPipe</title>
<polygon fill="#ffffb3" stroke="black" points="807.38,-84.8 724.62,-84.8 724.62,-48.8 807.38,-48.8 807.38,-84.8"/>
<text text-anchor="middle" x="766" y="-62.6" font-family="Times,serif" font-size="14.00">FaNumPipe</text>
</g>
<!-- FaNumPipe&#45;&gt;NgxPersianModule -->
<g id="edge2" class="edge">
<title>FaNumPipe&#45;&gt;NgxPersianModule</title>
<path fill="none" stroke="black" d="M781.56,-84.81C781.56,-100.85 781.56,-121.8 781.56,-121.8 781.56,-121.8 619.55,-121.8 619.55,-121.8"/>
<polygon fill="black" stroke="black" points="619.55,-118.3 609.55,-121.8 619.55,-125.3 619.55,-118.3"/>
</g>
<!-- IRCurrencyPipe -->
<g id="node3" class="node">
<title>IRCurrencyPipe</title>
<polygon fill="#ffffb3" stroke="black" points="706.47,-84.8 599.53,-84.8 599.53,-48.8 706.47,-48.8 706.47,-84.8"/>
<text text-anchor="middle" x="653" y="-62.6" font-family="Times,serif" font-size="14.00">IRCurrencyPipe</text>
</g>
<!-- IRCurrencyPipe&#45;&gt;NgxPersianModule -->
<g id="edge3" class="edge">
<title>IRCurrencyPipe&#45;&gt;NgxPersianModule</title>
<path fill="none" stroke="black" d="M604.47,-84.91C604.47,-84.91 604.47,-103.79 604.47,-103.79"/>
<polygon fill="black" stroke="black" points="600.97,-103.79 604.47,-113.79 607.97,-103.79 600.97,-103.79"/>
</g>
<!-- JdatePipe -->
<g id="node4" class="node">
<title>JdatePipe</title>
<polygon fill="#ffffb3" stroke="black" points="581.65,-84.8 512.35,-84.8 512.35,-48.8 581.65,-48.8 581.65,-84.8"/>
<text text-anchor="middle" x="547" y="-62.6" font-family="Times,serif" font-size="14.00">JdatePipe</text>
</g>
<!-- JdatePipe&#45;&gt;NgxPersianModule -->
<g id="edge4" class="edge">
<title>JdatePipe&#45;&gt;NgxPersianModule</title>
<path fill="none" stroke="black" d="M547,-84.91C547,-84.91 547,-103.79 547,-103.79"/>
<polygon fill="black" stroke="black" points="543.5,-103.79 547,-113.79 550.5,-103.79 543.5,-103.79"/>
</g>
<!-- NationalCodePipe -->
<g id="node5" class="node">
<title>NationalCodePipe</title>
<polygon fill="#ffffb3" stroke="black" points="494.15,-84.8 375.85,-84.8 375.85,-48.8 494.15,-48.8 494.15,-84.8"/>
<text text-anchor="middle" x="435" y="-62.6" font-family="Times,serif" font-size="14.00">NationalCodePipe</text>
</g>
<!-- NationalCodePipe&#45;&gt;NgxPersianModule -->
<g id="edge5" class="edge">
<title>NationalCodePipe&#45;&gt;NgxPersianModule</title>
<path fill="none" stroke="black" d="M489.45,-84.91C489.45,-84.91 489.45,-103.79 489.45,-103.79"/>
<polygon fill="black" stroke="black" points="485.95,-103.79 489.45,-113.79 492.95,-103.79 485.95,-103.79"/>
</g>
<!-- PersianLetterDirective -->
<g id="node6" class="node">
<title>PersianLetterDirective</title>
<polygon fill="#ffffb3" stroke="black" points="357.21,-84.8 214.79,-84.8 214.79,-48.8 357.21,-48.8 357.21,-84.8"/>
<text text-anchor="middle" x="286" y="-62.6" font-family="Times,serif" font-size="14.00">PersianLetterDirective</text>
</g>
<!-- PersianLetterDirective&#45;&gt;NgxPersianModule -->
<g id="edge6" class="edge">
<title>PersianLetterDirective&#45;&gt;NgxPersianModule</title>
<path fill="none" stroke="black" d="M306.29,-84.81C306.29,-100.85 306.29,-121.8 306.29,-121.8 306.29,-121.8 474.38,-121.8 474.38,-121.8"/>
<polygon fill="black" stroke="black" points="474.38,-125.3 484.38,-121.8 474.38,-118.3 474.38,-125.3"/>
</g>
<!-- PersianNumbersDirective -->
<g id="node7" class="node">
<title>PersianNumbersDirective</title>
<polygon fill="#ffffb3" stroke="black" points="196.11,-84.8 35.89,-84.8 35.89,-48.8 196.11,-48.8 196.11,-84.8"/>
<text text-anchor="middle" x="116" y="-62.6" font-family="Times,serif" font-size="14.00">PersianNumbersDirective</text>
</g>
<!-- PersianNumbersDirective&#45;&gt;NgxPersianModule -->
<g id="edge7" class="edge">
<title>PersianNumbersDirective&#45;&gt;NgxPersianModule</title>
<path fill="none" stroke="black" d="M192.18,-85.07C192.18,-103.36 192.18,-128.8 192.18,-128.8 192.18,-128.8 474.38,-128.8 474.38,-128.8"/>
<polygon fill="black" stroke="black" points="474.38,-132.3 484.38,-128.8 474.38,-125.3 474.38,-132.3"/>
</g>
<!-- EnNumPipe  -->
<g id="node9" class="node">
<title>EnNumPipe </title>
<polygon fill="#fb8072" stroke="black" points="921.94,-214.8 834.06,-214.8 834.06,-178.8 921.94,-178.8 921.94,-214.8"/>
<text text-anchor="middle" x="878" y="-192.6" font-family="Times,serif" font-size="14.00">EnNumPipe </text>
</g>
<!-- NgxPersianModule&#45;&gt;EnNumPipe  -->
<g id="edge8" class="edge">
<title>NgxPersianModule&#45;&gt;EnNumPipe </title>
<path fill="none" stroke="black" stroke-dasharray="5,2" d="M609.69,-135.8C704.16,-135.8 872.12,-135.8 872.12,-135.8 872.12,-135.8 872.12,-168.5 872.12,-168.5"/>
<polygon fill="black" stroke="black" points="868.63,-168.5 872.12,-178.5 875.63,-168.5 868.63,-168.5"/>
</g>
<!-- FaNumPipe  -->
<g id="node10" class="node">
<title>FaNumPipe </title>
<polygon fill="#fb8072" stroke="black" points="816.38,-214.8 729.62,-214.8 729.62,-178.8 816.38,-178.8 816.38,-214.8"/>
<text text-anchor="middle" x="773" y="-192.6" font-family="Times,serif" font-size="14.00">FaNumPipe </text>
</g>
<!-- NgxPersianModule&#45;&gt;FaNumPipe  -->
<g id="edge9" class="edge">
<title>NgxPersianModule&#45;&gt;FaNumPipe </title>
<path fill="none" stroke="black" stroke-dasharray="5,2" d="M609.61,-142.8C671.08,-142.8 755.69,-142.8 755.69,-142.8 755.69,-142.8 755.69,-168.52 755.69,-168.52"/>
<polygon fill="black" stroke="black" points="752.19,-168.52 755.69,-178.52 759.19,-168.52 752.19,-168.52"/>
</g>
<!-- IRCurrencyPipe  -->
<g id="node11" class="node">
<title>IRCurrencyPipe </title>
<polygon fill="#fb8072" stroke="black" points="712.47,-214.8 601.53,-214.8 601.53,-178.8 712.47,-178.8 712.47,-214.8"/>
<text text-anchor="middle" x="657" y="-192.6" font-family="Times,serif" font-size="14.00">IRCurrencyPipe </text>
</g>
<!-- NgxPersianModule&#45;&gt;IRCurrencyPipe  -->
<g id="edge10" class="edge">
<title>NgxPersianModule&#45;&gt;IRCurrencyPipe </title>
<path fill="none" stroke="black" stroke-dasharray="5,2" d="M605.6,-149.91C605.6,-149.91 605.6,-168.79 605.6,-168.79"/>
<polygon fill="black" stroke="black" points="602.1,-168.79 605.6,-178.79 609.1,-168.79 602.1,-168.79"/>
</g>
<!-- JdatePipe  -->
<g id="node12" class="node">
<title>JdatePipe </title>
<polygon fill="#fb8072" stroke="black" points="583.65,-214.8 510.35,-214.8 510.35,-178.8 583.65,-178.8 583.65,-214.8"/>
<text text-anchor="middle" x="547" y="-192.6" font-family="Times,serif" font-size="14.00">JdatePipe </text>
</g>
<!-- NgxPersianModule&#45;&gt;JdatePipe  -->
<g id="edge11" class="edge">
<title>NgxPersianModule&#45;&gt;JdatePipe </title>
<path fill="none" stroke="black" stroke-dasharray="5,2" d="M547,-149.91C547,-149.91 547,-168.79 547,-168.79"/>
<polygon fill="black" stroke="black" points="543.5,-168.79 547,-178.79 550.5,-168.79 543.5,-168.79"/>
</g>
<!-- NationalCodePipe  -->
<g id="node13" class="node">
<title>NationalCodePipe </title>
<polygon fill="#fb8072" stroke="black" points="492.15,-214.8 369.85,-214.8 369.85,-178.8 492.15,-178.8 492.15,-214.8"/>
<text text-anchor="middle" x="431" y="-192.6" font-family="Times,serif" font-size="14.00">NationalCodePipe </text>
</g>
<!-- NgxPersianModule&#45;&gt;NationalCodePipe  -->
<g id="edge12" class="edge">
<title>NgxPersianModule&#45;&gt;NationalCodePipe </title>
<path fill="none" stroke="black" stroke-dasharray="5,2" d="M488.32,-149.91C488.32,-149.91 488.32,-168.79 488.32,-168.79"/>
<polygon fill="black" stroke="black" points="484.82,-168.79 488.32,-178.79 491.82,-168.79 484.82,-168.79"/>
</g>
<!-- PersianLetterDirective  -->
<g id="node14" class="node">
<title>PersianLetterDirective </title>
<polygon fill="#fb8072" stroke="black" points="352.21,-214.8 205.79,-214.8 205.79,-178.8 352.21,-178.8 352.21,-214.8"/>
<text text-anchor="middle" x="279" y="-192.6" font-family="Times,serif" font-size="14.00">PersianLetterDirective </text>
</g>
<!-- NgxPersianModule&#45;&gt;PersianLetterDirective  -->
<g id="edge13" class="edge">
<title>NgxPersianModule&#45;&gt;PersianLetterDirective </title>
<path fill="none" stroke="black" stroke-dasharray="5,2" d="M484.47,-142.8C400.16,-142.8 260.46,-142.8 260.46,-142.8 260.46,-142.8 260.46,-168.52 260.46,-168.52"/>
<polygon fill="black" stroke="black" points="256.96,-168.52 260.46,-178.52 263.96,-168.52 256.96,-168.52"/>
</g>
<!-- PersianNumbersDirective  -->
<g id="node15" class="node">
<title>PersianNumbersDirective </title>
<polygon fill="#fb8072" stroke="black" points="188.11,-214.8 23.89,-214.8 23.89,-178.8 188.11,-178.8 188.11,-214.8"/>
<text text-anchor="middle" x="106" y="-192.6" font-family="Times,serif" font-size="14.00">PersianNumbersDirective </text>
</g>
<!-- NgxPersianModule&#45;&gt;PersianNumbersDirective  -->
<g id="edge14" class="edge">
<title>NgxPersianModule&#45;&gt;PersianNumbersDirective </title>
<path fill="none" stroke="black" stroke-dasharray="5,2" d="M484.19,-135.8C363.69,-135.8 111.88,-135.8 111.88,-135.8 111.88,-135.8 111.88,-168.5 111.88,-168.5"/>
<polygon fill="black" stroke="black" points="108.38,-168.5 111.88,-178.5 115.38,-168.5 108.38,-168.5"/>
</g>
</g>
</svg>
